# xmcd
#
# Track frame offsets:
#        150
#        20629
#        39353
#        63301
#        84494
#        105200
#        128640
#        149701
#        167049
#        195581
#        216053
#        239263
#
# Disc length: 3422 seconds
#
# Revision: 1
# Processed by: cddbd v1.5PL3 Copyright (c) Steve Scherf et al.
# Submitted via: ExactAudioCopy v0.95a3
#
DISCID=9e0d5c0c
DTITLE=Kazuo Zaitsu - The Best of Kazuo Zaitsu
DYEAR=1993
DGENRE=Pop
TTITLE0=Tsugunai on hibi
TTITLE1=City Swimmer
TTITLE2=Love story wo kimi ni
TTITLE3=Fuyu no Main street
TTITLE4=Seisyun no kage
TTITLE5=Ima dakara
TTITLE6=Saboten no hana
TTITLE7=Kimi no yubi
TTITLE8=Futari dake no screen
TTITLE9=Ai ni fureta toki
TTITLE10=Kodomo tachi no tame no Christmas
TTITLE11=Dream With You
EXTD=YEAR: 1993 ID3G: 13
EXTT0=
EXTT1=
EXTT2=
EXTT3=
EXTT4=
EXTT5=
EXTT6=
EXTT7=
EXTT8=
EXTT9=
EXTT10=
EXTT11=
PLAYORDER=
